HIERARCHY
ROOT Root
{
  OFFSET 0.0 0.0 0.0
  CHANNELS 6 Xposition Yposition Zposition Zrotation Yrotation Xrotation
  JOINT Hips
  {
    OFFSET 0.0 100.0 0.0
    CHANNELS 6 Xposition Yposition Zposition Zrotation Yrotation Xrotation
    JOINT Spine1
    {
      OFFSET -0.013727 5.003763 -0.053727
      CHANNELS 3 Zrotation Yrotation Xrotation
      JOINT Spine2
      {
        OFFSET -0.0 7.125301 -0.029825
        CHANNELS 3 Zrotation Yrotation Xrotation
        JOINT Chest
        {
          OFFSET -1e-06 7.550063 -0.815971
          CHANNELS 3 Zrotation Yrotation Xrotation
          JOINT Neck1
          {
            OFFSET -0.181677 26.311295 -0.553348
            CHANNELS 3 Zrotation Yrotation Xrotation
            JOINT Neck2
            {
              OFFSET -3e-06 7.709397 2.302585
              CHANNELS 3 Zrotation Yrotation Xrotation
              JOINT Head
              {
                OFFSET -5e-06 6.128916 1.953709
                CHANNELS 3 Zrotation Yrotation Xrotation
                JOINT HeadEnd
                {
                  OFFSET 0.003598 16.065403 -1.835379
                  CHANNELS 3 Zrotation Yrotation Xrotation
                }
                JOINT Jaw
                {
                  OFFSET 0.002637 0.475592 3.094941
                  CHANNELS 3 Zrotation Yrotation Xrotation
                }
                JOINT LeftEye
                {
                  OFFSET 3.206381 5.380205 7.586883
                  CHANNELS 3 Zrotation Yrotation Xrotation
                }
                JOINT RightEye
                {
                  OFFSET -3.22244 5.361869 7.558234
                  CHANNELS 3 Zrotation Yrotation Xrotation
                }
              }
            }
          }
          JOINT LeftShoulder
          {
            OFFSET 1.621652 23.237164 5.113413
            CHANNELS 3 Zrotation Yrotation Xrotation
            JOINT LeftArm
            {
              OFFSET 14.919846 2e-06 -5.502326
              CHANNELS 3 Zrotation Yrotation Xrotation
              JOINT LeftForeArm
              {
                OFFSET 28.739307 0.0 -0.002588
                CHANNELS 3 Zrotation Yrotation Xrotation
                JOINT LeftHand
                {
                  OFFSET 27.093981 -1e-06 0.002609
                  CHANNELS 3 Zrotation Yrotation Xrotation
                  JOINT LeftHandThumb1
                  {
                    OFFSET 2.276482 -1.392045 3.191413
                    CHANNELS 3 Zrotation Yrotation Xrotation
                    JOINT LeftHandThumb2
                    {
                      OFFSET 4.012836 -1.828127 1.641654
                      CHANNELS 3 Zrotation Yrotation Xrotation
                      JOINT LeftHandThumb3
                      {
                        OFFSET 2.798515 0.0 -3e-06
                        CHANNELS 3 Zrotation Yrotation Xrotation
                        JOINT LeftHandThumbEnd
                        {
                          OFFSET 3.180793 -4e-06 4e-06
                          CHANNELS 3 Zrotation Yrotation Xrotation
                        }
                      }
                    }
                  }
                  JOINT LeftHandIndex1
                  {
                    OFFSET 3.247555 -0.531998 2.296169
                    CHANNELS 3 Zrotation Yrotation Xrotation
                    JOINT LeftHandIndex2
                    {
                      OFFSET 6.364578 0.01206 0.1786
                      CHANNELS 3 Zrotation Yrotation Xrotation
                      JOINT LeftHandIndex3
                      {
                        OFFSET 3.662364 0.0 0.0
                        CHANNELS 3 Zrotation Yrotation Xrotation
                        JOINT LeftHandIndex4
                        {
                          OFFSET 2.329242 4e-06 4e-06
                          CHANNELS 3 Zrotation Yrotation Xrotation
                          JOINT LeftHandIndexEnd
                          {
                            OFFSET 2.759615 -0.180537 -0.113024
                            CHANNELS 3 Zrotation Yrotation Xrotation
                          }
                        }
                      }
                    }
                  }
                  JOINT LeftHandMiddle1
                  {
                    OFFSET 3.163495 0.240981 1.000332
                    CHANNELS 3 Zrotation Yrotation Xrotation
                    JOINT LeftHandMiddle2
                    {
                      OFFSET 6.19078 -0.259278 -1.002548
                      CHANNELS 3 Zrotation Yrotation Xrotation
                      JOINT LeftHandMiddle3
                      {
                        OFFSET 4.35652 -4e-06 -1e-06
                        CHANNELS 3 Zrotation Yrotation Xrotation
                        JOINT LeftHandMiddle4
                        {
                          OFFSET 2.996877 -8e-06 0.0
                          CHANNELS 3 Zrotation Yrotation Xrotation
                          JOINT LeftHandMiddleEnd
                          {
                            OFFSET 2.304287 -0.294569 -0.031741
                            CHANNELS 3 Zrotation Yrotation Xrotation
                          }
                        }
                      }
                    }
                  }
                  JOINT LeftHandRing1
                  {
                    OFFSET 2.882643 -0.053652 -0.322543
                    CHANNELS 3 Zrotation Yrotation Xrotation
                    JOINT LeftHandRing2
                    {
                      OFFSET 5.854541 -0.486202 -1.373841
                      CHANNELS 3 Zrotation Yrotation Xrotation
                      JOINT LeftHandRing3
                      {
                        OFFSET 4.350578 0.0 3e-06
                        CHANNELS 3 Zrotation Yrotation Xrotation
                        JOINT LeftHandRing4
                        {
                          OFFSET 2.651321 7e-06 2e-06
                          CHANNELS 3 Zrotation Yrotation Xrotation
                          JOINT LeftHandRingEnd
                          {
                            OFFSET 1.936105 0.077687 -7.1e-05
                            CHANNELS 3 Zrotation Yrotation Xrotation
                          }
                        }
                      }
                    }
                  }
                  JOINT LeftHandPinky1
                  {
                    OFFSET 2.8655 -0.310005 -1.600378
                    CHANNELS 3 Zrotation Yrotation Xrotation
                    JOINT LeftHandPinky2
                    {
                      OFFSET 5.087849 -1.331141 -1.77123
                      CHANNELS 3 Zrotation Yrotation Xrotation
                      JOINT LeftHandPinky3
                      {
                        OFFSET 3.070974 4e-06 0.0
                        CHANNELS 3 Zrotation Yrotation Xrotation
                        JOINT LeftHandPinky4
                        {
                          OFFSET 1.549672 0.0 1e-06
                          CHANNELS 3 Zrotation Yrotation Xrotation
                          JOINT LeftHandPinkyEnd
                          {
                            OFFSET 1.944893 -0.157802 0.057219
                            CHANNELS 3 Zrotation Yrotation Xrotation
                          }
                        }
                      }
                    }
                  }
                }
              }
            }
          }
          JOINT RightShoulder
          {
            OFFSET -1.380118 23.180309 5.214158
            CHANNELS 3 Zrotation Yrotation Xrotation
            JOINT RightArm
            {
              OFFSET -15.037196 1.2e-05 -5.545604
              CHANNELS 3 Zrotation Yrotation Xrotation
              JOINT RightForeArm
              {
                OFFSET -28.736639 2e-06 -0.002597
                CHANNELS 3 Zrotation Yrotation Xrotation
                JOINT RightHand
                {
                  OFFSET -27.133619 -0.0 0.002613
                  CHANNELS 3 Zrotation Yrotation Xrotation
                  JOINT RightHandThumb1
                  {
                    OFFSET -2.274032 -1.383988 3.163127
                    CHANNELS 3 Zrotation Yrotation Xrotation
                    JOINT RightHandThumb2
                    {
                      OFFSET -4.011429 -1.827466 1.640914
                      CHANNELS 3 Zrotation Yrotation Xrotation
                      JOINT RightHandThumb3
                      {
                        OFFSET -2.794935 -4e-06 -3e-06
                        CHANNELS 3 Zrotation Yrotation Xrotation
                        JOINT RightHandThumbEnd
                        {
                          OFFSET -3.183852 4e-06 1e-06
                          CHANNELS 3 Zrotation Yrotation Xrotation
                        }
                      }
                    }
                  }
                  JOINT RightHandIndex1
                  {
                    OFFSET -3.253266 -0.520057 2.282866
                    CHANNELS 3 Zrotation Yrotation Xrotation
                    JOINT RightHandIndex2
                    {
                      OFFSET -6.341917 0.012471 0.178266
                      CHANNELS 3 Zrotation Yrotation Xrotation
                      JOINT RightHandIndex3
                      {
                        OFFSET -3.654871 -8e-06 -0.0
                        CHANNELS 3 Zrotation Yrotation Xrotation
                        JOINT RightHandIndex4
                        {
                          OFFSET -2.327586 0.0 1e-06
                          CHANNELS 3 Zrotation Yrotation Xrotation
                          JOINT RightHandIndexEnd
                          {
                            OFFSET -2.76179 -0.180656 -0.113078
                            CHANNELS 3 Zrotation Yrotation Xrotation
                          }
                        }
                      }
                    }
                  }
                  JOINT RightHandMiddle1
                  {
                    OFFSET -3.168106 0.246593 1.00103
                    CHANNELS 3 Zrotation Yrotation Xrotation
                    JOINT RightHandMiddle2
                    {
                      OFFSET -6.180828 -0.258836 -1.000895
                      CHANNELS 3 Zrotation Yrotation Xrotation
                      JOINT RightHandMiddle3
                      {
                        OFFSET -4.348901 0.0 -0.0
                        CHANNELS 3 Zrotation Yrotation Xrotation
                        JOINT RightHandMiddle4
                        {
                          OFFSET -3.00024 -4e-06 -2e-06
                          CHANNELS 3 Zrotation Yrotation Xrotation
                          JOINT RightHandMiddleEnd
                          {
                            OFFSET -2.30252 -0.29437 -0.031706
                            CHANNELS 3 Zrotation Yrotation Xrotation
                          }
                        }
                      }
                    }
                  }
                  JOINT RightHandRing1
                  {
                    OFFSET -2.88569 -0.067952 -0.308858
                    CHANNELS 3 Zrotation Yrotation Xrotation
                    JOINT RightHandRing2
                    {
                      OFFSET -5.854198 -0.48613 -1.373731
                      CHANNELS 3 Zrotation Yrotation Xrotation
                      JOINT RightHandRing3
                      {
                        OFFSET -4.33881 -4e-06 -0.0
                        CHANNELS 3 Zrotation Yrotation Xrotation
                        JOINT RightHandRing4
                        {
                          OFFSET -2.654903 -4e-06 4e-06
                          CHANNELS 3 Zrotation Yrotation Xrotation
                          JOINT RightHandRingEnd
                          {
                            OFFSET -1.933568 0.077527 -5.2e-05
                            CHANNELS 3 Zrotation Yrotation Xrotation
                          }
                        }
                      }
                    }
                  }
                  JOINT RightHandPinky1
                  {
                    OFFSET -2.866425 -0.342796 -1.584145
                    CHANNELS 3 Zrotation Yrotation Xrotation
                    JOINT RightHandPinky2
                    {
                      OFFSET -5.091371 -1.332055 -1.772385
                      CHANNELS 3 Zrotation Yrotation Xrotation
                      JOINT RightHandPinky3
                      {
                        OFFSET -3.062664 -4e-06 1e-06
                        CHANNELS 3 Zrotation Yrotation Xrotation
                        JOINT RightHandPinky4
                        {
                          OFFSET -1.546529 4e-06 -2e-06
                          CHANNELS 3 Zrotation Yrotation Xrotation
                          JOINT RightHandPinkyEnd
                          {
                            OFFSET -1.945119 -0.157718 0.057211
                            CHANNELS 3 Zrotation Yrotation Xrotation
                          }
                        }
                      }
                    }
                  }
                }
              }
            }
          }
        }
      }
    }
    JOINT LeftLeg
    {
      OFFSET 10.043214 -8.434526 2.595655
      CHANNELS 3 Zrotation Yrotation Xrotation
      JOINT LeftShin
      {
        OFFSET -1e-06 -43.221752 -0.802913
        CHANNELS 3 Zrotation Yrotation Xrotation
        JOINT LeftFoot
        {
          OFFSET 1e-06 -42.155094 -3.481523
          CHANNELS 3 Zrotation Yrotation Xrotation
          JOINT LeftToeBase
          {
            OFFSET 0.0 -5.059472 13.231529
            CHANNELS 3 Zrotation Yrotation Xrotation
            JOINT LeftToeEnd
            {
              OFFSET -0.009607 -1.647619 6.513017
              CHANNELS 3 Zrotation Yrotation Xrotation
            }
          }
        }
      }
    }
    JOINT RightLeg
    {
      OFFSET -10.047278 -8.29526 2.620317
      CHANNELS 3 Zrotation Yrotation Xrotation
      JOINT RightShin
      {
        OFFSET 1e-06 -43.362206 -0.805556
        CHANNELS 3 Zrotation Yrotation Xrotation
        JOINT RightFoot
        {
          OFFSET 2e-06 -42.117393 -3.478398
          CHANNELS 3 Zrotation Yrotation Xrotation
          JOINT RightToeBase
          {
            OFFSET -0.0 -5.079609 13.284196
            CHANNELS 3 Zrotation Yrotation Xrotation
            JOINT RightToeEnd
            {
              OFFSET 0.009532 -1.634378 6.460591
              CHANNELS 3 Zrotation Yrotation Xrotation
            }
          }
        }
      }
    }
  }
}
MOTION
Frames: 4
Frame Time: 0.03333333333333333
0.0 0.0 0.0 0.0 -0.0 0.0 -1.410591 100.55674 1.40068 1.001279 -0.144767 0.87888 -0.022388 -0.007698 -4.342195 -0.634614 0.355313 -6.699672 -1.51037 -1.793867 10.429976 -1.194234 3.508419 9.682254 -0.803743 0.061633 -3.605901 2.044229 -1.947512 -1.538515 7.7e-05 -2.3e-05 6e-06 0.0034 0.105599 -0.041116 0.748857 -3.607849 -10.632019 -0.746506 3.823151 -10.642704 -17.818825 -4.820734 14.57317 -55.621819 -10.575306 26.420076 -0.164222 -20.399054 0.015758 2.674536 3.354235 -25.830816 -5.882112 9.861292 0.702591 -10.936882 -0.360576 7.15621 1e-06 8.774831 -1e-06 -16.18726 17.829266 5.836402 -1.844034 2.498506 -2.50728 -10.16361 4.678948 4.621111 -20.976042 -4e-06 3e-06 -21.226309 2.451698 -3.594002 -0.0 -6e-06 1e-06 -1.362683 2.2408 -0.746324 -21.334934 0.584909 3.008323 -13.821225 -3e-06 2e-06 -23.887192 -0.24908 -0.839482 -60.016922 2.364765 -1.400105 -0.294025 1.679689 0.833257 -14.218224 0.093215 1.30058 -34.212082 -0.287567 0.96717 -20.033232 0.964536 1.212844 1e-06 -1e-06 -1e-06 -3.440392 0.788235 0.501656 -15.928201 -3.167312 2.999708 -6.338831 -1e-06 1e-06 -18.123463 3.648185 -4.905675 -2e-06 1e-06 -3e-06 13.49221 10.384447 15.272671 63.283703 8.775721 24.791971 0.541209 18.563383 0.202728 2.658019 2.364226 -16.734629 2.243544 -5.255042 -3.180161 14.28291 -0.826593 6.952508 -5e-06 -12.690618 -0.0 16.199888 -17.737171 2.500272 1.665669 -1.955924 -2.878301 4.727804 -4.170591 4.993926 11.02054 4e-06 -2e-06 12.109068 -3.735718 -2.866785 -1e-06 0.0 -1e-06 1.291987 -1.928551 -1.498091 14.800149 0.567472 3.86561 14.242591 -1.341735 -6.660664 19.631992 0.143929 -0.648244 49.562889 -0.540681 -6.481772 0.353029 -1.511152 -0.031939 20.222818 3.684318 2.316631 18.7873 9e-06 0.0 10.751644 -0.479865 1.397908 -0.0 -1e-06 0.0 3.273812 0.305948 -0.580112 21.486847 11.830393 2.266135 8.16294 4e-06 -2e-06 18.399107 -3.798985 -4.940581 3e-06 1e-06 -2e-06 2.704492 -5.018034 -7.79511 -0.000581 -0.102483 9.623436 -4.592928 3.242928 -1.275926 1.665698 -1.903871 -1.402646 0.0 0.0 2e-06 -2.024756 -1.419223 -6.73747 -0.012474 -0.064505 10.051125 2.299839 -7.31268 -4.306383 -1.419057 1.073742 -1.741479 -0.0 0.0 -1e-06 
0.0 0.0 0.0 0.0 -0.0 0.0 -1.415626 100.57328 1.336495 1.012295 -0.124186 0.869747 -0.028136 -0.021152 -4.326368 -0.621135 0.422842 -6.678164 -1.509792 -1.838619 10.430966 -1.208734 3.542451 9.859177 -0.808086 0.030189 -3.577891 2.018627 -1.962704 -1.5806 7.7e-05 -2.3e-05 6e-06 -0.003163 0.121577 -0.037002 0.744087 -3.59232 -10.628714 -0.75487 3.839427 -10.643209 -17.863165 -4.797194 14.60966 -55.645386 -10.660262 26.268583 -0.234885 -20.449657 0.016112 2.793655 3.318459 -25.722464 -5.882109 9.861288 0.702591 -10.936877 -0.360575 7.156209 1e-06 8.774828 -1e-06 -16.151384 17.780447 5.834924 -1.844033 2.498505 -2.507278 -10.163604 4.678946 4.621109 -20.976034 -5e-06 4e-06 -21.226294 2.451697 -3.594001 -0.0 -6e-06 1e-06 -1.362682 2.240798 -0.746324 -21.334925 0.584909 3.008323 -13.82122 -3e-06 3e-06 -23.88718 -0.24908 -0.839482 -59.978836 2.366979 -1.364393 -0.294025 1.679687 0.833255 -14.218215 0.093214 1.300581 -34.212063 -0.287566 0.967172 -20.033218 0.964536 1.212845 1e-06 -1e-06 -1e-06 -3.44039 0.788233 0.501657 -15.928192 -3.167311 2.999708 -6.338828 -1e-06 1e-06 -18.123447 3.648182 -4.90567 -2e-06 1e-06 -2e-06 13.505007 10.400242 15.359306 63.238037 8.89524 24.829857 0.525779 18.517262 0.190907 2.712704 2.394447 -16.788744 2.243542 -5.255038 -3.180157 14.282896 -0.826595 6.952505 -2e-06 -12.690609 -1e-06 16.197445 -17.717609 2.479475 1.665667 -1.955922 -2.878299 4.727801 -4.170589 4.993925 11.020531 2e-06 -1e-06 12.109058 -3.735717 -2.866786 -1e-06 0.0 -1e-06 1.291986 -1.92855 -1.498089 14.800136 0.567468 3.865608 14.242579 -1.341737 -6.660659 19.631981 0.143926 -0.648246 49.645081 -0.548757 -6.47477 0.353029 -1.51115 -0.031939 20.222801 3.68431 2.31663 18.787283 4e-06 -1e-06 10.751633 -0.479867 1.397906 -0.0 -1e-06 0.0 3.273808 0.305947 -0.580112 21.48682 11.830379 2.266134 8.162933 2e-06 -1e-06 18.399092 -3.798985 -4.940577 3e-06 1e-06 -2e-06 2.705867 -5.027388 -7.792236 -0.021112 -0.124643 9.545109 -4.694171 3.253881 -1.149482 1.667384 -1.92208 -1.418931 0.0 0.0 2e-06 -2.027215 -1.341942 -6.691834 -0.014646 -0.055955 9.899624 2.243322 -7.393608 -4.190385 -1.424193 1.055585 -1.766147 -0.0 0.0 -1e-06 
0.0 0.0 0.0 0.0 -0.0 0.0 -1.408267 100.570206 1.30699 1.046234 -0.113427 0.859058 -0.037325 -0.026254 -4.322845 -0.614142 0.456002 -6.686468 -1.506905 -1.854599 10.494495 -1.21234 3.581988 10.047819 -0.807951 -0.038489 -3.592752 2.007809 -1.98633 -1.571246 7.7e-05 -2.2e-05 6e-06 -0.005937 0.128301 -0.035475 0.74085 -3.58343 -10.637923 -0.757187 3.843827 -10.650507 -17.903339 -4.792955 14.620556 -55.661301 -10.710181 26.11838 -0.304023 -20.554308 0.014502 2.92004 3.349729 -25.810911 -5.882114 9.861297 0.702591 -10.936887 -0.360576 7.156209 1e-06 8.774836 -2e-06 -16.13332 17.783892 5.837073 -1.844036 2.498507 -2.507279 -10.163614 4.67895 4.621111 -20.976055 -6e-06 0.0 -21.226318 2.451696 -3.594006 -0.0 -6e-06 1e-06 -1.362684 2.240801 -0.746324 -21.334946 0.584908 3.00832 -13.821234 -4e-06 -0.0 -23.887205 -0.249084 -0.839487 -59.969246 2.38581 -1.40113 -0.294025 1.679689 0.833256 -14.218229 0.093214 1.300578 -34.212097 -0.287569 0.967166 -20.033243 0.964534 1.212842 -0.0 -1e-06 -1e-06 -3.440394 0.788235 0.501656 -15.928208 -3.167314 2.999706 -6.338835 -1e-06 -1e-06 -18.123474 3.648185 -4.90568 -2e-06 1e-06 -2e-06 13.50984 10.426219 15.417848 63.169308 9.019976 24.827974 0.547379 18.485956 0.183154 2.674566 2.393176 -16.78611 2.243543 -5.255039 -3.180158 14.282905 -0.826593 6.952502 -4e-06 -12.690614 -2e-06 16.207178 -17.70216 2.481423 1.665668 -1.955922 -2.878299 4.727802 -4.170589 4.993924 11.020536 4e-06 -2e-06 12.109062 -3.735716 -2.866785 -1e-06 0.0 -1e-06 1.291986 -1.92855 -1.498089 14.800142 0.567471 3.865608 14.242585 -1.341735 -6.66066 19.631987 0.143929 -0.648245 49.679653 -0.564867 -6.486044 0.353029 -1.511151 -0.03194 20.222811 3.684315 2.316631 18.787289 9e-06 -1e-06 10.751637 -0.479865 1.397907 -1e-06 -1e-06 0.0 3.27381 0.305948 -0.580111 21.486834 11.830385 2.266133 8.162935 4e-06 -3e-06 18.399096 -3.798983 -4.940579 2e-06 1e-06 -2e-06 2.667775 -5.066638 -7.795259 -0.030486 -0.136018 9.530989 -4.756348 3.282888 -1.12405 1.66898 -1.930378 -1.388402 0.0 0.0 2e-06 -2.070933 -1.296607 -6.752586 -0.012935 -0.058824 10.008775 2.216535 -7.448768 -4.222281 -1.426611 1.044783 -1.742095 -0.0 0.0 -1e-06 
0.0 0.0 0.0 0.0 -0.0 0.0 -1.406035 100.562096 1.278605 1.075428 -0.092608 0.835863 -0.047193 -0.025562 -4.314141 -0.60569 0.455036 -6.701957 -1.494761 -1.836908 10.571088 -1.212034 3.604621 10.25954 -0.805465 -0.088538 -3.620306 2.005419 -2.007229 -1.588925 7.7e-05 -2.3e-05 6e-06 -0.0069 0.126402 -0.0345 0.738092 -3.583159 -10.649533 -0.756371 3.839558 -10.660155 -17.967398 -4.78962 14.6381 -55.643433 -10.765588 26.065948 -0.331002 -20.667875 0.015116 3.049305 3.389429 -25.951998 -5.882114 9.861299 0.702591 -10.936884 -0.360575 7.156213 -0.0 8.774837 -1e-06 -16.117455 17.768328 5.838687 -1.844035 2.498507 -2.50728 -10.163612 4.678951 4.621112 -20.976053 -4e-06 1e-06 -21.226315 2.451698 -3.594006 -0.0 -7e-06 -0.0 -1.362683 2.240802 -0.746324 -21.334942 0.58491 3.008323 -13.821229 -3e-06 2e-06 -23.887201 -0.249082 -0.839485 -59.965046 2.392716 -1.436797 -0.294026 1.67969 0.833257 -14.218227 0.093215 1.300579 -34.212097 -0.287566 0.967167 -20.033241 0.964536 1.212842 1e-06 -1e-06 -1e-06 -3.440392 0.788234 0.501656 -15.928206 -3.167314 2.999706 -6.338834 -0.0 -0.0 -18.12347 3.648186 -4.905679 -2e-06 1e-06 -1e-06 13.52893 10.443883 15.471429 63.076416 9.160007 24.886803 0.543448 18.503626 0.174171 2.656854 2.362507 -16.819393 2.243545 -5.255042 -3.180161 14.282907 -0.826595 6.952507 -2e-06 -12.690618 -1e-06 16.224953 -17.693743 2.486648 1.665669 -1.955923 -2.878301 4.727804 -4.170592 4.993928 11.02054 3e-06 -3e-06 12.109066 -3.735718 -2.866789 -0.0 0.0 -1e-06 1.291987 -1.928551 -1.49809 14.800146 0.567469 3.865608 14.242589 -1.341737 -6.660665 19.631992 0.143929 -0.648247 49.665211 -0.585614 -6.487824 0.353029 -1.511152 -0.031941 20.222818 3.684315 2.31663 18.787298 8e-06 -5e-06 10.751641 -0.479867 1.397906 -1e-06 -0.0 0.0 3.273811 0.305948 -0.580113 21.486843 11.830389 2.266132 8.162938 3e-06 -1e-06 18.399103 -3.798984 -4.940584 2e-06 1e-06 -2e-06 2.63374 -5.076154 -7.789161 -0.031567 -0.139242 9.525074 -4.796686 3.293132 -1.117638 1.669055 -1.929463 -1.363302 0.0 0.0 2e-06 -2.106251 -1.271752 -6.817045 -0.014103 -0.065759 10.157633 2.196193 -7.483998 -4.277296 -1.427254 1.038073 -1.709633 -0.0 0.0 -1e-06 
